<svg width="967" height="1001" viewBox="0 0 967 1001" fill="none" xmlns="http://www.w3.org/2000/svg">
<path d="M358.992 5.2356C329.984 5.50926 301.09 10.7223 272.285 13.6474C224.6 18.4898 176.524 18.764 128.636 18.824C89.7677 18.8726 50.8866 16.2357 12.1648 16.2357" stroke="white" stroke-width="3" stroke-linecap="round"/>
<path d="M307.822 288.379C244.871 288.379 181.92 288.379 118.969 288.379C107.073 288.379 43.2225 285.106 37.532 296.487" stroke="white" stroke-width="3" stroke-linecap="round"/>
<path d="M36.8207 296.858C32.5045 302.613 31.1474 313.508 28.9488 320.322C26.1301 329.056 22.3455 337.403 20.0311 346.314C18.6516 351.625 16.3293 357.211 12.8627 361.545" stroke="white" stroke-width="3" stroke-linecap="round"/>
<path d="M12.8627 360.86C54.2095 360.86 95.4625 357.422 136.836 358.198C165.225 358.73 193.349 358.952 221.716 358.046C247.857 357.211 274.939 358.212 300.854 354.281C313.704 352.332 327.026 349.908 340.061 349.908" stroke="white" stroke-width="3" stroke-linecap="round"/>
<path d="M343.141 351.277C340.877 333.163 326.747 317.725 317.49 302.866C313.141 295.884 306.568 291.463 302.412 284.537" stroke="white" stroke-width="3" stroke-linecap="round"/>
<path d="M339.376 352.646C339.846 358.282 342.418 363.707 342.799 369.417" stroke="white" stroke-width="3" stroke-linecap="round"/>
<path d="M340.06 368.047C324.228 373.545 303.962 371.613 287.543 372.155C258.768 373.104 230.065 373.882 201.313 375.425C161.963 377.536 122.545 378.198 83.177 380.521C61.1875 381.818 38.4286 385.208 16.4177 382.251C14.5247 381.997 1.71339 382.424 2.0049 380.578C2.93393 374.694 8.41272 368.377 8.41272 362.571" stroke="white" stroke-width="3" stroke-linecap="round"/>
<path d="M35.1093 346.485C44.5104 346.94 54.1043 349.199 63.5166 347.854" stroke="white" stroke-width="3" stroke-linecap="round"/>
<path d="M51.1955 329.03C57.4834 329.233 63.7157 329.715 70.0197 329.715" stroke="white" stroke-width="3" stroke-linecap="round"/>
<path d="M57.0137 309.179C62.3571 310.225 68.045 310.583 73.4421 309.864" stroke="white" stroke-width="3" stroke-linecap="round"/>
<path d="M101.165 311.233C104.793 313.306 113.135 311.256 116.909 310.548" stroke="white" stroke-width="3" stroke-linecap="round"/>
<path d="M141.209 311.917C144.759 311.84 148.315 311.064 151.819 310.548" stroke="white" stroke-width="3" stroke-linecap="round"/>
<path d="M173.724 309.521H180.911" stroke="white" stroke-width="3" stroke-linecap="round"/>
<path d="M210.345 307.468H218.559" stroke="white" stroke-width="3" stroke-linecap="round"/>
<path d="M270.24 307.81C275.274 307.712 280.289 307.239 285.3 306.783" stroke="white" stroke-width="3" stroke-linecap="round"/>
<path d="M268.871 322.869H277.77" stroke="white" stroke-width="3" stroke-linecap="round"/>
<path d="M298.648 320.131C299.29 323.598 307.24 335.222 304.77 337.663C297.133 345.208 287.628 346.827 277.428 346.827" stroke="white" stroke-width="3" stroke-linecap="round"/>
<path d="M231.223 325.607C232.024 324.853 232.933 324.874 233.961 324.581" stroke="white" stroke-width="3" stroke-linecap="round"/>
<path d="M233.961 325.607H239.779" stroke="white" stroke-width="3" stroke-linecap="round"/>
<path d="M233.961 345.116C238.045 344.425 242.244 344.213 246.282 343.405" stroke="white" stroke-width="3" stroke-linecap="round"/>
<path d="M198.366 324.581C202.559 325.951 208.472 326.827 212.741 325.607" stroke="white" stroke-width="3" stroke-linecap="round"/>
<path d="M164.825 328.003H178.857" stroke="white" stroke-width="3" stroke-linecap="round"/>
<path d="M126.492 327.661C131.065 327.453 135.605 327.319 140.182 327.319" stroke="white" stroke-width="3" stroke-linecap="round"/>
<path d="M92.951 326.977H104.588" stroke="white" stroke-width="3" stroke-linecap="round"/>
<path d="M93.6353 344.09C99.6568 344.958 105.706 344.774 111.775 344.774" stroke="white" stroke-width="3" stroke-linecap="round"/>
<path d="M148.054 349.223C157.347 348.946 166.542 347.751 175.777 346.828" stroke="white" stroke-width="3" stroke-linecap="round"/>
<path d="M193.575 346.143C197.252 346.143 200.936 346.356 204.527 345.458" stroke="white" stroke-width="3" stroke-linecap="round"/>
<path d="M121.7 346.143C127.969 346.443 133.962 346.555 140.182 345.801" stroke="white" stroke-width="3" stroke-linecap="round"/>
<path d="M112.801 250.653C120.13 256.027 136.135 254.921 144.593 255.464C167.515 256.936 189.905 252.737 212.36 248.828C232.466 245.328 252.124 239.52 272.56 238.598C280.867 238.224 285.685 233.485 282.238 241.241C279.596 247.187 278.879 253.874 276.553 259.856C273.526 267.639 234.022 265.538 228.332 265.903C193.082 268.163 157.766 268.451 122.461 268.451C115.462 268.451 100.292 269.581 97.0575 262.214C95.1933 257.968 99.369 252.365 103.903 252.365" stroke="white" stroke-width="3" stroke-linecap="round"/>
<path d="M119.647 245.861C119.647 237.169 121.79 224.408 131.359 221.143C140.76 217.936 152.667 218.454 162.467 217.454C179.965 215.668 197.583 216.226 215.099 214.374C220.499 213.803 240.36 209.429 245.674 213.499C252.717 218.894 251.074 235.824 251.074 243.808" stroke="white" stroke-width="3" stroke-linecap="round"/>
<path d="M241.148 191.785C241.972 199.2 241.833 206.553 241.833 214.032" stroke="white" stroke-width="3" stroke-linecap="round"/>
<path d="M138.813 193.838C133.058 199.594 134.73 211.213 135.391 218.481" stroke="white" stroke-width="3" stroke-linecap="round"/>
<path d="M25.7529 192.884C98.0791 192.884 170.22 183.956 242.735 183.825C279.609 183.759 318.399 187.257 355.109 183.178" stroke="white" stroke-width="3" stroke-linecap="round"/>
<path d="M358.345 183.825C347.455 147.528 357.355 99.6251 357.841 62.0332C358.101 41.9771 360.286 22.0237 360.286 2" stroke="white" stroke-width="3" stroke-linecap="round"/>
<path d="M16.0471 18.1768C16.0471 72.3429 8.72423 126.249 8.28235 180.159C8.22433 187.238 6.29693 195.428 11.5177 200.649" stroke="white" stroke-width="3" stroke-linecap="round"/>
<path d="M70.4008 47.9419C70.4008 72.8181 68.7325 97.5161 67.8126 122.354" stroke="white" stroke-width="3" stroke-linecap="round"/>
<path d="M69.7534 53.118C93.3201 59.4408 118.728 55.3496 142.225 50.5298" stroke="white" stroke-width="3" stroke-linecap="round"/>
<path d="M153.872 53.1182C152.82 73.6432 148.696 93.3475 148.696 113.942" stroke="white" stroke-width="3" stroke-linecap="round"/>
<path d="M71.6948 119.766C97.7599 122.945 121.118 122.305 146.754 117.178" stroke="white" stroke-width="3" stroke-linecap="round"/>
<path d="M193.343 55.0592C216.293 55.0592 239.21 53.896 261.932 50.5298" stroke="white" stroke-width="3" stroke-linecap="round"/>
<path d="M201.755 64.1184C215.782 66.9695 230.356 67.788 244.461 64.7655" stroke="white" stroke-width="3" stroke-linecap="round"/>
<path d="M203.049 88.7069C218.386 88.117 233.688 87.2664 248.991 86.1187" stroke="white" stroke-width="3" stroke-linecap="round"/>
<path d="M197.872 99.7069C218.207 99.7069 238.427 97.1187 258.696 97.1187" stroke="white" stroke-width="3" stroke-linecap="round"/>
<path d="M65.6138 146.546C88.068 146.546 110.55 146.195 133.002 145.844" stroke="white" stroke-width="3" stroke-linecap="round"/>
<path d="M139.319 145.493C139.319 156.164 135.843 171.088 139.67 181.293" stroke="white" stroke-width="3" stroke-linecap="round"/>
<path d="M64.9119 153.215C64.9119 161.456 66.4583 169.721 68.0707 177.783" stroke="white" stroke-width="3" stroke-linecap="round"/>
<path d="M204.953 153.215C225.653 153.104 246.27 150.242 266.725 147.248" stroke="white" stroke-width="3" stroke-linecap="round"/>
<path d="M216.184 164.797C227.89 166.574 239.838 165.684 251.632 165.148" stroke="white" stroke-width="3" stroke-linecap="round"/>
<path d="M213.726 173.221C231.99 173.502 250.245 174.046 268.479 172.87" stroke="white" stroke-width="3" stroke-linecap="round"/>
<path d="M200.039 110.746C197.862 110.202 194.488 105.754 192.59 111.448C191.692 114.144 193.477 119.709 195.827 121.276" stroke="white" stroke-width="3" stroke-linecap="round"/>
<path d="M201.092 111.098C204.568 108.78 209.299 111.024 208.033 115.309C206.751 119.65 201.121 122.075 197.582 124.435" stroke="white" stroke-width="3" stroke-linecap="round"/>
<path d="M220.746 109.693C220.746 113.332 220.395 116.934 220.395 120.574" stroke="white" stroke-width="3" stroke-linecap="round"/>
<path d="M220.746 108.29C225.808 108.29 231.641 108.965 236.462 107.393C237.952 106.907 238.846 117.068 236.131 118.312C231.411 120.475 224.044 118.641 221.078 122.348C217.55 126.758 217.237 125.747 217.237 120.223" stroke="white" stroke-width="3" stroke-linecap="round"/>
<path d="M110.874 79.4163C109.025 78.5818 90.4316 73.4947 91.0826 75.9245C92.521 81.2926 106.422 81.5913 110.61 80.469C115.106 79.2644 127.44 77.525 130.841 81.5298C132.036 82.9356 119.556 85.1992 117.327 84.278C116.237 83.8275 110.85 82.2599 110.534 81.0788" stroke="white" stroke-linecap="round"/>
<path d="M109.764 81.8742C109.028 80.5488 101.743 83.873 100.814 84.2286C97.6229 85.4501 95.6794 87.5654 93.8914 90.3609C92.9413 91.8464 92.274 94.2244 94.6145 92.6114C97.4403 90.664 102.288 90.5288 105.557 90.7706C110.982 91.1719 121.482 91.5765 125.509 95.9217C128.98 99.667 124.867 92.4581 123.955 90.9367C122.625 88.719 121.314 86.0641 118.97 84.7106" stroke="white" stroke-linecap="round"/>
<path d="M109.947 81.825C107.52 82.4752 101.016 86.6124 101.94 90.0594" stroke="white" stroke-linecap="round"/>
<path d="M109.791 83.4382C111.718 82.9218 115.46 89.203 115.947 91.0201" stroke="white" stroke-linecap="round"/>
<path d="M606.916 157.929C615.065 163.843 630.534 162.974 640.08 163.6C673.425 165.786 706.837 166.919 740.19 169.057C755.391 170.032 780.633 175.076 795.683 169.905" stroke="white" stroke-width="3" stroke-linecap="round"/>
<path d="M787.541 173.143C794.595 202.398 792.049 236.077 793.743 266.024C795.359 294.593 795.885 324.033 791.479 352.411C787.905 375.441 776.556 396.2 771.695 419.062" stroke="white" stroke-width="3" stroke-linecap="round"/>
<path d="M766.941 418.051C725.907 409.326 683.116 402.482 640.97 403.736C624.422 404.228 608.134 409.932 591.476 409.731" stroke="white" stroke-width="3" stroke-linecap="round"/>
<path d="M586.722 408.72C597.291 391.255 597.576 356.888 597.863 337.057C598.243 310.866 604.261 285.164 606.292 259.112C608.055 236.501 608.924 213.839 611.87 191.328C613.447 179.273 617.624 161.143 612.9 149.263" stroke="white" stroke-width="3" stroke-linecap="round"/>
<path d="M618.979 342.697C662.362 351.921 707.892 345.866 751.337 355.103" stroke="white" stroke-width="3" stroke-linecap="round"/>
<path d="M633.005 348.466C638.24 323.842 646.008 297.835 661.717 278.134" stroke="white" stroke-width="3" stroke-linecap="round"/>
<path d="M663.024 279.177C666.1 283.63 671.509 287.39 674.167 291.482" stroke="white" stroke-width="3" stroke-linecap="round"/>
<path d="M673.076 293.357C693.997 278.311 697.074 246.242 715.788 228.75C720.324 224.511 725.823 209.175 734.551 213.439C742.957 217.546 733.531 249.745 732.569 256.049C729.273 277.654 724.999 299.2 720.456 320.567C718.293 330.742 716.129 340.917 713.966 351.092" stroke="white" stroke-width="3" stroke-linecap="round"/>
<path d="M727.745 215.149C719.327 218.042 717.101 252.278 715.408 260.243C711.472 278.754 707.347 297.236 703.598 315.786C702.473 321.353 697.138 345.622 702.724 350.077" stroke="white" stroke-width="3" stroke-linecap="round"/>
<path d="M608.938 208.83C589.089 204.61 555.241 212.385 535.151 216.64C523.377 219.134 511.083 222.376 499.299 223.704" stroke="white" stroke-width="3" stroke-linecap="round"/>
<path d="M499.598 222.299C506.436 244.938 516.086 267.26 523.583 289.082" stroke="white" stroke-width="3" stroke-linecap="round"/>
<path d="M523.39 293.447C510.1 291.759 488.047 293.996 475.991 298.79" stroke="white" stroke-width="3" stroke-linecap="round"/>
<path d="M475.437 297.938C480.916 272.17 490.915 249.317 496.339 223.81" stroke="white" stroke-width="3" stroke-linecap="round"/>
<path d="M473.436 300.45C474.869 302.365 473.584 309.312 473.66 311.675C474.274 330.871 475.991 350.013 477.347 369.165C478.087 379.624 479.33 390.189 480.786 400.575C482.816 415.054 486.601 429.153 491.182 443.01C497.104 460.923 495.633 484.031 502.149 500.416" stroke="white" stroke-width="3" stroke-linecap="round"/>
<path d="M503.553 500.715C522.836 487.546 548.514 484.323 570.751 478.612C585.538 474.815 599.496 467.312 614.667 464.9C637.87 461.21 664.581 457.848 687.853 462.796" stroke="white" stroke-width="3" stroke-linecap="round"/>
<path d="M687.853 462.796C676.557 460.394 667.292 418.284 665.991 406.745" stroke="white" stroke-width="3" stroke-linecap="round"/>
<path d="M540.11 460.022C559.2 461.215 579.903 453.071 598.24 448.72C620.676 443.396 641.929 442.745 664.592 440.961" stroke="white" stroke-width="3" stroke-linecap="round"/>
<path d="M550.958 436.627C567.024 435.714 584.35 425.339 601.159 423.476C617.967 421.612 634.92 419.79 651.763 418.406" stroke="white" stroke-width="3" stroke-linecap="round"/>
<path d="M553.969 374.116C566.587 376.347 578.241 367.367 590.276 365.68" stroke="white" stroke-width="3" stroke-linecap="round"/>
<path d="M563.263 351.125C572.425 346.682 581.334 341.324 590.481 337.085" stroke="white" stroke-width="3" stroke-linecap="round"/>
<path d="M572.751 323.769C577.653 323.276 584.67 318.729 587.234 314.365" stroke="white" stroke-width="3" stroke-linecap="round"/>
<path d="M574.018 300.54C578.358 298.725 590.149 293.747 591.206 288.774" stroke="white" stroke-width="3" stroke-linecap="round"/>
<path d="M573.283 279.822C577.065 278.207 580.813 273.552 584.358 272.631" stroke="white" stroke-width="3" stroke-linecap="round"/>
<path d="M569.887 257.805C574.017 255.802 579.62 254.985 582.92 251.764" stroke="white" stroke-width="3" stroke-linecap="round"/>
<path d="M567.658 244.113C573.747 240.263 580.301 235.441 586.953 232.795" stroke="white" stroke-width="3" stroke-linecap="round"/>
<path d="M551.578 400.957C561.847 403.14 572.29 398.263 582.818 398.391" stroke="white" stroke-width="3" stroke-linecap="round"/>
<path d="M126.223 498.395C101.571 588.759 71.0354 676.822 43.0791 766.137" stroke="white" stroke-width="3" stroke-linecap="round"/>
<path d="M118.742 516.556C198.084 562.879 294.434 573.196 384.563 578.973" stroke="white" stroke-width="3" stroke-linecap="round"/>
<path d="M424.309 599.918C400.145 673.433 365.638 740.924 345.229 815.735" stroke="white" stroke-width="3" stroke-linecap="round"/>
<path d="M59.7459 760.582C151.279 797.959 236.763 818.783 334.968 825.563" stroke="white" stroke-width="3" stroke-linecap="round"/>
<path d="M413.078 663.548C426.65 674.405 444.09 676.556 460 681.859" stroke="white" stroke-width="3" stroke-linecap="round"/>
<path d="M451.989 693.303C447.101 694.932 438.768 729.953 436.73 734.503C420.444 770.848 402.842 806.544 387.01 843.097C377.463 865.139 367.948 885.916 360.434 908.457" stroke="white" stroke-width="3" stroke-linecap="round"/>
<path d="M105.226 796.302C105.226 808.645 99.5909 820.584 94.9258 831.78" stroke="white" stroke-width="3" stroke-linecap="round"/>
<path d="M106.37 830.636C151.984 839.759 197.708 855.163 243.829 864.46C277.455 871.238 322.762 875.888 353.568 891.291" stroke="white" stroke-width="3" stroke-linecap="round"/>
<path d="M279.825 618.823C275.58 612.917 226.968 563.791 224.634 572.502C219.477 591.749 262.104 617.596 277.12 621.619C293.239 625.938 334.652 642.647 338.035 661.18C339.223 667.686 296.418 652.343 291.147 645.486C288.569 642.133 274.654 627.61 275.789 623.375" stroke="white" stroke-width="3" stroke-linecap="round"/>
<path d="M271.975 624.466C272.066 619.032 243.487 616.294 239.965 615.733C227.867 613.805 218.041 616.889 207.478 622.364C201.865 625.273 195.53 631.46 205.688 630.648C217.954 629.667 233.248 637.937 242.964 644.548C259.089 655.519 290.966 675.598 295.68 696.309C299.744 714.16 299.897 684.404 299.792 678.045C299.639 668.775 300.326 658.181 295.473 649.776" stroke="white" stroke-width="3" stroke-linecap="round"/>
<path d="M272.632 624.642C263.932 622.311 236.32 623.497 233.009 635.855" stroke="white" stroke-width="3" stroke-linecap="round"/>
<path d="M269.254 629.37C276.163 631.222 276.523 657.433 274.777 663.947" stroke="white" stroke-width="3" stroke-linecap="round"/>
<path d="M218.637 636.933C193.634 630.234 162.72 645.884 156.203 670.202C151.738 686.867 147.453 692.868 131.516 702.475C118.837 710.117 110.172 733.229 120.067 746.08C142.787 775.588 183.117 781.204 217.289 770.448C234.811 764.933 253.657 766.602 268.279 753.752C273.971 748.75 291.426 716.294 275.946 712.146" stroke="white" stroke-width="3" stroke-linecap="round"/>
<path d="M281.189 724.114C282.995 717.375 295.158 683.493 281.768 679.905" stroke="white" stroke-width="3" stroke-linecap="round"/>
<path d="M207.521 699.446C227.075 704.685 248.043 707.26 262.874 724.136" stroke="white" stroke-width="3" stroke-linecap="round"/>
<path d="M217.246 699.938C210.636 698.167 219.714 681.297 223.352 679.196C230.529 675.053 237.47 674.558 245.138 677.17C263.764 683.517 259.339 703.16 255.212 718.562" stroke="white" stroke-width="3" stroke-linecap="round"/>
<path d="M244.481 679.773C230.266 675.964 229.354 696.888 230.869 704.293" stroke="white" stroke-width="3" stroke-linecap="round"/>
<path d="M182.214 690.398C183.65 685.036 176.67 675.701 171.519 673.904C170.373 673.504 166.474 673.264 166.923 671.587C167.835 668.183 169.165 663.504 172.406 661.554C192.987 649.166 201.883 683.668 185.178 689.319" stroke="white" stroke-width="3" stroke-linecap="round"/>
<path d="M185.609 663.753C179.022 661.988 178.577 676.162 178.815 680.123" stroke="white" stroke-width="3" stroke-linecap="round"/>
<path d="M181.113 692.51C178.088 691.348 175.481 689.408 172.336 691.763C168.876 694.356 166.061 705.597 171.841 707.146" stroke="white" stroke-width="3" stroke-linecap="round"/>
<path d="M163.86 686.016C150.807 693.552 146.132 716.361 158.806 725.843C175.724 738.5 207.453 743.076 225.12 729.389C233.469 722.921 249.867 721.447 245.908 736.223C244.759 740.513 244.869 731.335 244.864 730.191C244.851 727.165 243.037 723.351 240.8 721.344C234.616 715.799 224.981 715.04 218.377 709.184" stroke="white" stroke-width="3" stroke-linecap="round"/>
<path d="M236.253 723.335C231.898 716.558 219.49 721.425 213.955 723.245C205.968 725.872 193.742 725.739 185.603 723.674C173.027 720.483 157.42 712.378 156.523 697.424" stroke="white" stroke-width="3" stroke-linecap="round"/>
<path d="M153.826 697.504C148.714 698.675 141.88 711.135 140.571 716.022C137.819 726.292 144.534 739.938 153.876 745.015C180.472 759.47 224.013 753.713 242.487 729.019" stroke="white" stroke-width="3" stroke-linecap="round"/>
<path d="M162.311 714.757C160.585 717.754 158.158 721.269 157.255 724.638" stroke="white" stroke-width="3" stroke-linecap="round"/>
<path d="M178.511 724.181L176.772 730.67" stroke="white" stroke-width="3" stroke-linecap="round"/>
<path d="M188.975 728.056C189.349 729.664 187.784 733.95 188.984 735.014" stroke="white" stroke-width="3" stroke-linecap="round"/>
<path d="M202.958 727.788C203.407 730.551 202.898 733.608 203.064 736.377" stroke="white" stroke-width="3" stroke-linecap="round"/>
<path d="M149.987 720.817C148.757 725.123 145.586 728.408 143.897 732.561" stroke="white" stroke-width="3" stroke-linecap="round"/>
<path d="M157.617 729.283C158.853 730.858 154.697 740.179 154.139 742.262" stroke="white" stroke-width="3" stroke-linecap="round"/>
<path d="M175.351 736.976C174.988 740.434 173.399 744.625 174.539 747.994" stroke="white" stroke-width="3" stroke-linecap="round"/>
<path d="M188.196 740.955C188.551 744.133 188.138 747.608 189.349 750.627" stroke="white" stroke-width="3" stroke-linecap="round"/>
<path d="M206.506 740.51C207.655 742.716 207.654 745.682 207.945 748.118" stroke="white" stroke-width="3" stroke-linecap="round"/>
<path d="M128.516 734.059C132.839 752.072 161.935 763.215 178.014 764.978" stroke="white" stroke-width="3" stroke-linecap="round"/>
<path d="M238.283 751.7C246.094 753.793 256.595 743.262 258.408 736.494" stroke="white" stroke-width="3" stroke-linecap="round"/>
<path d="M186.56 648.225C192.918 649.929 203.984 656.077 201.77 664.339" stroke="white" stroke-width="3" stroke-linecap="round"/>
<path d="M219.178 665.257C224.531 665.233 229.468 662.377 235.122 663.436C239.52 664.259 243.124 666.096 247.155 667.67" stroke="white" stroke-width="3" stroke-linecap="round"/>
<path d="M198.913 644.045C198.426 647.027 208.231 652.962 210.426 653.55C213.809 654.456 218.557 651.289 221.951 650.693C226.913 649.822 231.823 650.917 236.771 651.514" stroke="white" stroke-width="3" stroke-linecap="round"/>
<path d="M195.233 702.713C199.146 704.152 198.999 711.932 195.736 713.816" stroke="white" stroke-width="3" stroke-linecap="round"/>
<path d="M179.463 708.652C181.773 709.184 184.1 708.557 186.536 709.21" stroke="white" stroke-width="3" stroke-linecap="round"/>
<path d="M269.039 684.635C271.216 683.95 277.045 698.822 277.236 700.787" stroke="white" stroke-width="3" stroke-linecap="round"/>
<path d="M246.177 679.382C223.721 686.856 244.56 705.654 254.881 694.015" stroke="white" stroke-width="3" stroke-linecap="round"/>
<path d="M255.679 700.703C251.001 699.45 237.359 706.01 245.134 709.855" stroke="white" stroke-width="3" stroke-linecap="round"/>
<path d="M190.572 674.251C186.383 673.128 182.836 676.285 181.808 680.121" stroke="white" stroke-width="3" stroke-linecap="round"/>
<g opacity="0.3">
<path d="M825.736 831.637C825.109 819.727 800.975 814.632 792.353 813.65C784.149 812.715 757.76 812.04 757.112 825.209C756.856 830.407 758.474 832.69 764.37 831.368C771.566 829.754 781.154 827.364 788.345 829.535C794.487 831.389 825.736 845.973 825.736 831.417" stroke="white" stroke-width="3" stroke-linecap="round"/>
<path d="M795.603 817.34C793.092 817.34 793.628 827.911 794.283 829.657" stroke="white" stroke-width="3" stroke-linecap="round"/>
<path d="M775.587 828.777C772.086 827.207 767.489 816.46 763.71 816.46" stroke="white" stroke-width="3" stroke-linecap="round"/>
<path d="M849.49 832.956C854.056 834.01 858.142 837.928 862.247 832.064C864.915 828.252 866.268 827.515 870.923 825.93C879.524 823.002 889.584 820.142 898.526 822.509C905.129 824.256 909.283 831.33 899.027 831.417C889.899 831.494 877.067 828.977 868.406 832.956C862.323 835.751 861.524 844.584 865.436 849.648C869.939 855.475 878.794 857.656 883.9 863.199C892.968 873.045 899.87 886.363 911.955 893.002C918.493 896.593 918.955 912.138 927.572 912.138" stroke="white" stroke-width="3" stroke-linecap="round"/>
<path d="M889.961 870.347C892.518 870.837 903.309 873.093 902.486 871.985C899.626 868.135 910.417 873.766 911.809 874.868C912.557 875.461 912.311 877.598 912.615 878.485C913.56 881.241 916.014 882.704 918.346 884.204C920.824 885.797 927.213 889.149 928.012 892.342" stroke="white" stroke-width="3" stroke-linecap="round"/>
<path d="M884.682 869.028C880.445 863.732 874.256 866.348 872.914 872.437C871.453 879.069 862.125 882.933 856.308 880.025" stroke="white" stroke-width="3" stroke-linecap="round"/>
<path d="M841.571 870.347C834.132 870.347 828.631 864.466 826.664 873.427C825.452 878.948 817.711 876.977 813.198 876.726C811.917 876.655 807.512 876.931 807.931 874.624C808.455 871.744 807.333 868.533 807.931 865.839C809.01 860.984 818.339 861.096 821.116 856.931" stroke="white" stroke-width="3" stroke-linecap="round"/>
<path d="M807.039 869.028C807.877 862.329 807.647 882.677 806.16 889.263C803.553 900.806 809.784 906.063 814.249 916.268C817.697 924.15 817.214 933.553 819.796 941.831C821.051 945.852 822.113 951.303 823.975 955.028" stroke="white" stroke-width="3" stroke-linecap="round"/>
<path d="M797.362 945.35C796.528 943.369 796.437 941.147 795.505 939.155C793.745 935.394 789.851 931.459 789.346 927.204C788.57 920.659 789.627 914.881 788.491 908.215C787.132 900.244 790.75 892.146 788.882 884.18C787.82 879.65 785.28 874.653 788.344 870.568" stroke="white" stroke-width="3" stroke-linecap="round"/>
<path d="M780.646 864.409C785.837 862.073 790.509 866.016 794.93 864.726C798.506 863.683 801.875 860.402 803.741 857.37" stroke="white" stroke-width="3" stroke-linecap="round"/>
<path d="M770.088 851.652C773.616 856.168 786.747 851.74 792.278 853.399C796.164 854.565 806.834 850.609 810.559 849.013" stroke="white" stroke-width="3" stroke-linecap="round"/>
<path d="M787.685 837.355C783.139 840.602 781.953 842.186 775.685 842.744C770.584 843.199 765.701 844.203 760.704 845.054C749.955 846.883 740.352 840.229 729.948 838.247C725.758 837.449 720.953 837.91 716.861 838.944C709.541 840.795 708.375 842.862 705.033 849.672C699.591 860.763 704.714 865.272 711.143 872.987" stroke="white" stroke-width="3" stroke-linecap="round"/>
<path d="M706.523 884.424C699.863 879.166 692.322 875.618 689.526 867.109C687.849 862.004 688.975 854.271 689.917 849.122C692.29 836.163 710.25 832.22 721.26 829.217" stroke="white" stroke-width="3" stroke-linecap="round"/>
<path d="M751.016 827.967C732.99 827.967 741.956 837.947 756.006 837.947" stroke="white" stroke-width="3" stroke-linecap="round"/>
<path d="M916.932 830.878C917.994 836.188 931.707 837.791 935.621 836.029C940.795 833.701 942.821 835.252 948.211 838.779C961.351 847.376 951.116 882.606 936.891 885.767" stroke="white" stroke-width="3" stroke-linecap="round"/>
<path d="M894.477 851.669C897.914 852.357 900.332 856.072 904.434 855.389C906.278 855.081 906.788 849.216 909.054 848.366C916.28 845.656 927.001 846.679 934.812 846.679" stroke="white" stroke-width="3" stroke-linecap="round"/>
<path d="M929.823 930.677C933.346 932.542 941.211 944.199 933.38 945.554C925.645 946.893 936.645 954.795 924.417 954.795" stroke="white" stroke-width="3" stroke-linecap="round"/>
<path d="M832.518 965.606C840.612 965.606 838.575 972.781 843.93 974.662C849.598 976.654 858.538 978.172 864.537 977.25" stroke="white" stroke-width="3" stroke-linecap="round"/>
<path d="M851.646 963.527C846.967 963.527 856.35 948.085 863.913 947.749C866.081 947.652 873.746 947.298 874.702 944.977C876.841 939.781 870.782 936.498 878.259 936.498C883.679 936.498 885.497 931.364 889.163 931.092C893.504 930.771 896.085 934.762 900.483 931.947C904.309 929.499 917.143 938.522 921.921 939.825" stroke="white" stroke-width="3" stroke-linecap="round"/>
<path d="M878.26 958.121C881.053 948.98 893.607 945.221 901.962 947.31" stroke="white" stroke-width="3" stroke-linecap="round"/>
<path d="M861.626 824.225C861.424 814.704 862.755 816.266 864.537 810.918" stroke="white" stroke-width="3" stroke-linecap="round"/>
<path d="M818.796 800.106C821.29 804.844 824.202 809.612 824.202 815.076" stroke="white" stroke-width="3" stroke-linecap="round"/>
<path d="M822.538 793.869C806.402 792.524 763.256 792.907 756.837 812.165" stroke="white" stroke-width="3" stroke-linecap="round"/>
<path d="M741.036 812.166C764.666 788.99 794.368 779.729 826.281 783.473C842.859 785.418 859.179 790.765 875.765 792.113C887.438 793.062 897.96 789.653 909.447 792.206" stroke="white" stroke-width="3" stroke-linecap="round"/>
<path d="M908.199 815.076C897.904 802.208 874.293 803.433 859.547 803.433" stroke="white" stroke-width="3" stroke-linecap="round"/>
<path d="M734.383 803.433C738.156 802.804 744.66 795.473 748.475 793.453C755.027 789.984 761.382 786.191 768.019 782.873C776.308 778.728 785.454 776.82 794.678 776.82C822.651 776.82 858.392 771.461 884.081 784.305" stroke="white" stroke-width="3" stroke-linecap="round"/>
<path d="M960.178 864.56C965.813 863.856 961.589 838.223 960.178 834.851C955.885 824.597 945.904 820.289 942.551 809.486C938.506 796.452 935.584 786.683 922.337 780.331C903.738 771.414 877.401 770.512 857.145 769.012C831.024 767.077 804.454 766.966 778.276 766.447C759.02 766.066 734.784 763.432 719.644 777.236C713.983 782.398 709.995 788.666 707.354 795.856C705.209 801.693 706.849 809.806 703.935 815.169C699.1 824.064 686.666 825.629 681.249 834.528C663.82 863.161 704.918 888.234 716.109 911.549C733.109 946.965 780.464 971.819 815.469 983.487C843.349 992.78 871.662 995.667 900.691 998.272C922.232 1000.21 931.072 1000.77 948.188 984.018C953.895 978.434 952.795 965.587 951.007 958.768C946.427 941.309 937.215 917.894 943.868 899.905C948.927 886.228 958.75 874.486 965.168 861.649" stroke="white" stroke-width="3" stroke-linecap="round"/>
</g>
<path d="M599.629 652.064C579.711 689.59 554.596 726.367 539.075 765.876" stroke="white" stroke-width="3" stroke-linecap="round"/>
<path d="M626.344 564.981C602.538 558.434 573.5 561.315 566.165 589.817C558.239 620.617 583.497 649.699 610.225 661.578C626.759 668.927 652.284 668.457 669.21 662.444C688.322 655.654 681.792 624.246 676.434 610.473C668.504 590.091 640.721 554.569 613.449 568.205" stroke="white" stroke-width="3" stroke-linecap="round"/>
<path d="M615.24 564.343C606.23 564.343 598.436 573.886 598.381 582.354C598.284 597.012 608.482 608.983 621.275 615.525C634.791 622.436 644.804 630.924 645.334 647.09C645.579 654.56 642.445 659.285 640.771 665.983" stroke="white" stroke-width="3" stroke-linecap="round"/>
<path d="M562.975 603.362C564.656 614.01 585.185 617.225 592.6 618.054C602.299 619.138 608.76 619.347 617.461 614.628C625.012 610.533 630.795 607.993 639.566 607.71C655.822 607.186 680.271 613.938 680.271 633.95" stroke="white" stroke-width="3" stroke-linecap="round"/>
<path d="M595.789 652.918C610.821 652.918 619.923 640.896 619.923 625.597C619.923 614.231 615.346 596.76 623.212 587.347C630.28 578.888 639.85 572.321 651.342 572.321" stroke="white" stroke-width="3" stroke-linecap="round"/>
</svg>
