<svg width="887" height="538" viewBox="0 0 887 538" fill="none" xmlns="http://www.w3.org/2000/svg">
<path d="M702.613 280.297C698.074 257.147 696.462 239.399 682.533 219.605C669.061 200.461 648.751 190.924 627.561 182.516C593.89 169.154 555.253 175.092 522.704 188.717C457.912 215.839 443.15 309.307 483.146 362.635C497.586 381.889 517.433 406.961 540.587 415.891C562.128 424.2 594.871 419.564 617.807 419.564C644.727 419.564 675.29 397.878 685.935 373.684C694.498 354.222 699.213 333.987 700.867 312.811C701.328 306.918 709.472 273.16 703.155 270.001" stroke="white" stroke-width="3" stroke-linecap="round"/>
<path d="M609.949 178.963C621.219 192.346 570.689 201.055 581.891 223.458C587.861 235.399 626.958 236.08 609.407 258.019C603.935 264.859 580.337 281.919 593.752 292.399C600.082 297.345 610.392 295.535 617.535 294.146C628.121 292.087 619.759 281.633 624.399 278.912C628.002 276.801 642.016 294.719 644.058 287.402C646.244 279.569 643.525 271.372 642.041 263.739C639.793 252.178 671.731 281.399 672.809 281.923C678.863 284.868 686.889 276.275 690.872 272.771C694.463 269.61 697.547 272.63 701.529 274.336" stroke="white" stroke-width="3" stroke-linecap="round"/>
<path d="M560.095 314.979C552.479 313.075 538.621 301.032 543.297 292.46C547.071 285.541 556.421 267.281 541.31 267.834C517.405 268.709 466.115 283.239 477.848 317.568C480.092 324.136 492.181 323.09 497.687 324.191C501.586 324.971 499.403 346.665 499.403 350.383C499.403 360.61 525.779 379.145 531.074 369.229C534.627 362.575 538.622 352.37 547.12 352.37C550.197 352.37 561.806 355.153 563.587 353.032C572.266 342.7 564.793 318.171 551.967 313.895" stroke="white" stroke-width="3" stroke-linecap="round"/>
<path d="M574.726 370.252C570.969 360.232 532.855 384.028 554.495 391.386C563.485 394.443 580.41 388.212 573.913 376.243C571.303 371.436 549.651 362.615 551.966 371.878" stroke="white" stroke-width="3" stroke-linecap="round"/>
<path d="M639.753 414.688C639.639 414.789 613.73 386.962 614.284 380.307C614.693 375.409 627.747 371.587 630.842 367.212C633.675 363.207 640.795 356.371 642.342 352.008C647.786 336.668 641.684 311.467 666.427 317.929C675.55 320.312 687.137 324.191 696.652 324.191" stroke="white" stroke-width="3" stroke-linecap="round"/>
<path d="M543.838 183.84C549.236 183.84 549.877 199.08 547.962 202.234C542.55 211.148 532.419 213.016 538.178 224.994C547.827 245.064 549.557 250.464 527.039 256.213C518.566 258.376 506.518 261.054 498.469 256.183C492.605 252.634 492.465 243.99 484.229 243.99C471.027 243.99 477.726 239.006 477.726 228.817" stroke="white" stroke-width="3" stroke-linecap="round"/>
<path d="M698.82 243.99C717.201 241.828 735.456 235.101 753.431 230.985C779.305 225.059 806.109 220.692 830.501 209.851" stroke="white" stroke-width="3" stroke-linecap="round"/>
<path d="M836.224 220.227C836.224 294.831 861.11 375.881 884.58 446.291" stroke="white" stroke-width="3" stroke-linecap="round"/>
<path d="M878.535 454.753C831.373 458.062 781.19 483.226 736.154 496.796C701.49 507.24 665.767 513.687 630.711 522.451" stroke="white" stroke-width="3" stroke-linecap="round"/>
<path d="M616.205 518.825C613.607 487.655 592.027 458.468 592.027 428.157" stroke="white" stroke-width="3" stroke-linecap="round"/>
<path d="M791.199 313.724C787.133 310.397 744.038 285.213 744.038 291.726C744.038 306.117 778.606 316.18 789.834 316.18C801.886 316.18 833.899 320.095 839.724 332.392C841.769 336.708 809.039 334.006 804.08 330.208C801.655 328.351 789.233 320.82 789.233 317.654" stroke="white" stroke-width="3" stroke-linecap="round"/>
<path d="M786.778 319.128C785.826 315.32 765.378 318.752 762.816 319.018C754.016 319.935 747.737 323.923 741.392 329.717C738.02 332.796 734.757 338.296 741.692 335.83C750.065 332.853 762.28 335.764 770.294 338.56C783.594 343.199 809.585 351.248 816.745 364.815C822.917 376.509 817.461 355.722 816.199 351.305C814.36 344.867 812.859 337.348 807.903 332.392" stroke="white" stroke-width="3" stroke-linecap="round"/>
<path d="M787.269 319.128C780.764 319.128 761.723 325.116 761.723 334.357" stroke="white" stroke-width="3" stroke-linecap="round"/>
<path d="M785.796 323.058C790.962 323.058 796.112 341.276 796.112 346.147" stroke="white" stroke-width="3" stroke-linecap="round"/>
<path d="M751.899 337.796C733.204 337.796 714.564 354.492 714.564 372.675C714.564 385.135 712.696 390.123 703.374 399.803C695.958 407.505 694.233 425.248 703.537 432.363C724.903 448.701 754.087 445.08 775.916 431.189C787.109 424.067 800.568 421.708 808.367 410.011C811.402 405.457 817.513 379.553 805.938 379.553" stroke="white" stroke-width="3" stroke-linecap="round"/>
<path d="M811.833 386.921C811.833 381.882 813.985 355.972 803.973 355.972" stroke="white" stroke-width="3" stroke-linecap="round"/>
<path d="M755.83 383.483C770.45 383.483 785.559 381.36 799.06 390.36" stroke="white" stroke-width="3" stroke-linecap="round"/>
<path d="M762.706 382.008C757.764 382.008 760.943 368.542 763.088 366.397C767.321 362.165 772.071 360.522 777.908 360.912C792.088 361.857 792.673 376.387 792.673 387.903" stroke="white" stroke-width="3" stroke-linecap="round"/>
<path d="M777.936 362.85C767.307 362.85 770.582 377.617 773.023 382.5" stroke="white" stroke-width="3" stroke-linecap="round"/>
<path d="M736.484 381.901C736.484 377.892 729.869 372.685 725.94 372.393C725.066 372.329 722.301 372.89 722.301 371.637C722.301 369.092 722.354 365.578 724.25 363.612C736.293 351.123 748.948 373.529 738.35 380.594" stroke="white" stroke-width="3" stroke-linecap="round"/>
<path d="M733.871 362.679C728.946 362.679 731.285 372.65 732.191 375.369" stroke="white" stroke-width="3" stroke-linecap="round"/>
<path d="M736.11 383.581C733.783 383.336 731.601 382.469 729.848 384.7C727.918 387.156 728.056 395.524 732.377 395.524" stroke="white" stroke-width="3" stroke-linecap="round"/>
<path d="M722.86 382.275C715.162 389.972 716.165 406.758 726.779 411.003C740.947 416.671 763.937 413.932 773.703 401.082C778.319 395.008 789.483 390.915 789.483 401.963C789.483 405.171 787.844 398.748 787.627 397.951C787.052 395.842 785.074 393.52 783.138 392.539C777.787 389.826 770.924 391.097 765.222 388.246" stroke="white" stroke-width="3" stroke-linecap="round"/>
<path d="M780.339 394.777C776.034 390.864 768.288 396.578 764.766 398.883C759.686 402.209 751.132 404.401 745.068 404.481C735.698 404.606 723.296 401.869 719.874 391.605" stroke="white" stroke-width="3" stroke-linecap="round"/>
<path d="M718.008 392.165C714.661 393.937 712.223 403.907 712.223 407.561C712.223 415.24 719.458 423.505 726.925 425.3C748.18 430.412 777.479 418.258 785.751 397.577" stroke="white" stroke-width="3" stroke-linecap="round"/>
<path d="M727.152 402.615C726.508 405.028 725.472 407.934 725.472 410.453" stroke="white" stroke-width="3" stroke-linecap="round"/>
<path d="M740.215 406.161V411.013" stroke="white" stroke-width="3" stroke-linecap="round"/>
<path d="M748.239 406.908C748.801 407.961 748.51 411.243 749.546 411.76" stroke="white" stroke-width="3" stroke-linecap="round"/>
<path d="M757.944 404.107C758.774 405.951 758.99 408.179 759.624 410.079" stroke="white" stroke-width="3" stroke-linecap="round"/>
<path d="M719.688 409.146C719.635 412.38 718.037 415.264 717.635 418.477" stroke="white" stroke-width="3" stroke-linecap="round"/>
<path d="M726.593 413.626C727.749 414.493 726.593 421.773 726.593 423.33" stroke="white" stroke-width="3" stroke-linecap="round"/>
<path d="M740.402 415.678C740.795 418.158 740.47 421.379 741.895 423.516" stroke="white" stroke-width="3" stroke-linecap="round"/>
<path d="M750.107 416.052C750.948 418.203 751.31 420.704 752.719 422.584" stroke="white" stroke-width="3" stroke-linecap="round"/>
<path d="M762.797 412.319C764.011 413.644 764.565 415.713 765.223 417.358" stroke="white" stroke-width="3" stroke-linecap="round"/>
<path d="M707.184 422.398C713.567 434.156 735.947 436.491 747.493 434.715" stroke="white" stroke-width="3" stroke-linecap="round"/>
<path d="M787.057 414.186C792.897 414.186 798.254 404.877 798.254 399.816" stroke="white" stroke-width="3" stroke-linecap="round"/>
<path d="M731.631 351.669C736.386 351.669 745.255 353.889 745.255 360.067" stroke="white" stroke-width="3" stroke-linecap="round"/>
<path d="M757.571 357.453C761.301 356.436 764.211 353.521 768.353 353.202C771.575 352.954 774.433 353.562 777.539 353.907" stroke="white" stroke-width="3" stroke-linecap="round"/>
<path d="M739.469 346.443C739.686 348.615 747.636 350.922 749.277 350.922C751.806 350.922 754.527 347.825 756.783 346.775C760.082 345.24 763.711 345.086 767.275 344.577" stroke="white" stroke-width="3" stroke-linecap="round"/>
<path d="M747.868 388.059C750.866 388.331 752.218 393.786 750.294 395.71" stroke="white" stroke-width="3" stroke-linecap="round"/>
<path d="M737.976 395.15C739.687 395.089 741.193 394.217 743.015 394.217" stroke="white" stroke-width="3" stroke-linecap="round"/>
<path d="M795.977 361.651C797.367 360.766 804.213 370.051 804.714 371.387" stroke="white" stroke-width="3" stroke-linecap="round"/>
<path d="M779.046 362.26C764.778 371.671 782.829 380.89 787.853 370.841" stroke="white" stroke-width="3" stroke-linecap="round"/>
<path d="M789.659 375.358C786.162 375.358 777.871 382.485 784.014 383.713" stroke="white" stroke-width="3" stroke-linecap="round"/>
<path d="M739.297 369.074C736.164 369.074 734.28 371.939 734.28 374.808" stroke="white" stroke-width="3" stroke-linecap="round"/>
<path d="M178.174 145.958C175.813 139.792 178.037 126.116 169.876 123.149C163.246 120.739 151.088 121.344 147.113 128.462C136.614 147.265 139.893 125.682 121.995 133.123C112.381 137.121 125.408 148.527 115.879 145.368C109.629 143.297 100.328 146.89 96.3482 152.053C93.434 155.833 106.202 166.848 101.671 165.346C96.4505 163.616 86.3827 162.802 82.9062 168.556C69.7291 190.363 102.131 178.346 78.877 190.022C71.7455 193.602 73.3581 205.533 76.3908 210.97C82.2574 221.488 82.9388 215.053 75.4527 226.861C69.2994 236.566 72.5054 244.495 83.1443 248.654C85.555 249.596 90.7652 252.356 93.2353 251.442C94.3711 251.021 96.4944 248.074 96.1134 249.224C93.8475 256.06 88.6106 266.619 97.0003 271.634C103.515 275.528 116.819 279.858 119.668 271.261C120.605 268.434 116.87 281.27 121.364 284.895C126.34 288.91 148.036 299.477 147.925 289.456C147.805 278.553 149.734 287.591 158.584 293.375C165.072 297.615 181.849 301.07 180.343 287.858C179.832 283.373 167.549 275.902 171.834 277.323C181.638 280.572 192.819 282.987 200.441 274.289C206.275 267.632 202.924 259.042 197.729 252.732C190.288 243.694 195.792 249.274 207.213 246.618C214.726 244.871 223.489 242.984 225.165 234.353C226.109 229.489 217.995 218.571 220.209 217.237C230.853 210.827 234.053 199.197 223.187 190.666C213.141 182.778 222.299 187.85 228.321 175.695C232.736 166.784 217.032 158.245 209.838 155.682C198.691 151.71 201.496 161.456 206.439 146.541C212.861 127.167 177.575 143.384 174.928 144.111" stroke="white" stroke-width="3" stroke-linecap="round"/>
<path d="M100.818 276.928C87.1128 318.277 82.145 362.254 70.9029 404.293C68.1868 414.449 64.2788 424.406 60.9702 434.388C58.169 442.84 73.0343 421.256 79.644 415.291C85.6456 409.874 88.9105 405.954 91.413 398.404C94.946 387.745 98.1659 420.464 98.6375 425.486C101.387 454.771 111.487 421.634 115.81 408.591C128.232 371.114 126.997 330.616 139.288 293.536" stroke="white" stroke-width="3" stroke-linecap="round"/>
<path d="M126.888 356.545C193.054 381.13 260.586 400.089 327.619 422.307C369.5 436.189 401.078 434.731 416.639 387.781" stroke="white" stroke-width="3" stroke-linecap="round"/>
<path d="M416.641 387.781C408.618 385.122 400.28 390.918 390.958 385.612C384.623 382.006 378.162 376.712 373.309 371.876" stroke="white" stroke-width="3" stroke-linecap="round"/>
<path d="M457.62 108.203C440.597 119.259 429.747 164.366 423.474 183.29C409.891 224.27 399.142 266.007 385.576 306.938C377.43 331.513 359.645 367.995 362.695 394.588C363.226 399.224 362.779 428.561 369.24 430.703" stroke="white" stroke-width="3" stroke-linecap="round"/>
<path d="M450.907 109.835C427.421 89.2947 382.004 85.4532 353.048 75.8556C325.576 66.7499 297.933 55.8008 269.407 50.4465C250.956 46.9833 228.236 46.8291 210.649 40.9997" stroke="white" stroke-width="3" stroke-linecap="round"/>
<path d="M212.503 42.3866C204.284 67.1815 192.698 91.6265 186.95 117.28C186.125 120.965 179.472 136.155 182.098 138.773" stroke="white" stroke-width="3" stroke-linecap="round"/>
<path d="M197.12 184.645C195.285 161.595 165.953 148.546 145.632 152.154C116.027 157.41 107.617 182.87 106.748 209.795C105.821 238.482 125.223 258.841 151.703 265.185C188.24 273.94 220.814 197.528 192.57 176.419" stroke="white" stroke-width="3" stroke-linecap="round"/>
<path d="M142.328 339.824C144.945 338.576 158.896 327.426 159.478 330.31C160.166 333.718 160.02 337.153 162.52 339.848C168.994 346.827 181.711 326.973 184.919 330.406C189.481 335.29 183.83 342.313 193.687 333.196C204.347 323.337 203.16 329.302 211.217 321.017C213.041 319.14 221.823 307.007 225.044 308.075C227.536 308.901 224.606 313.862 229.051 310.256C240.158 301.249 253.767 277.332 244.359 305.715C238.461 323.509 258.609 294.114 261.326 291.022C272.417 278.403 260.984 304.575 269.831 296.711C279.277 288.314 287.384 267.385 290.458 285.48C291.772 293.217 309.544 269.15 312.41 266.392C312.556 266.252 311.348 278.152 311.164 279.859C310.023 290.458 316.052 282.026 319.261 277.657C343.633 244.479 323.014 270.078 332.944 275.912C336.234 277.845 348.287 246.425 348.068 259.174C347.996 263.381 353.25 252.544 355.919 249.292C361.422 242.587 382.649 200.984 389.077 201.776" stroke="white" stroke-width="3" stroke-linecap="round"/>
<path d="M148.832 345.469C207.807 365.016 268.371 380.904 327.405 400.471" stroke="white" stroke-width="3" stroke-linecap="round"/>
<path d="M345.295 129.792C343.263 126.587 319.435 99.5209 317.954 103.988C314.683 113.856 336.101 128.614 343.801 131.166C352.066 133.906 373.129 143.867 374.328 153.624C374.749 157.048 352.919 147.756 350.382 144.024C349.141 142.199 342.334 134.212 343.054 132.041" stroke="white" stroke-width="3" stroke-linecap="round"/>
<path d="M341.035 132.493C341.248 129.665 326.445 127.371 324.627 126.971C318.384 125.6 313.172 126.907 307.504 129.438C304.492 130.783 301.004 133.813 306.32 133.699C312.738 133.56 320.454 138.333 325.314 142.072C333.38 148.276 349.374 159.703 351.2 170.634C352.774 180.056 353.758 164.562 353.897 161.246C354.098 156.413 354.778 150.916 352.506 146.39" stroke="white" stroke-width="3" stroke-linecap="round"/>
<path d="M341.371 132.604C336.91 131.126 322.492 130.905 320.391 137.241" stroke="white" stroke-width="3" stroke-linecap="round"/>
<path d="M339.468 134.964C343.011 136.138 342.401 149.802 341.294 153.142" stroke="white" stroke-width="3" stroke-linecap="round"/>
<path d="M312.873 137.366C300.053 133.117 283.475 140.33 279.342 152.799C276.509 161.343 274.095 164.339 265.502 168.859C258.666 172.454 253.45 184.229 258.213 191.224C269.151 207.284 289.988 211.435 308.114 206.871C317.408 204.53 327.174 205.972 335.181 199.723C338.298 197.291 348.376 180.915 340.439 178.284" stroke="white" stroke-width="3" stroke-linecap="round"/>
<path d="M342.806 184.677C343.951 181.222 351.316 163.943 344.45 161.667" stroke="white" stroke-width="3" stroke-linecap="round"/>
<path d="M305.183 169.59C315.209 172.913 326.053 174.892 333.265 184.133" stroke="white" stroke-width="3" stroke-linecap="round"/>
<path d="M310.234 170.142C306.845 169.019 312.086 160.507 314.045 159.524C317.909 157.583 321.54 157.537 325.454 159.13C334.964 163.002 332.062 173.099 329.444 180.996" stroke="white" stroke-width="3" stroke-linecap="round"/>
<path d="M325.032 160.465C317.743 158.049 316.632 168.92 317.197 172.824" stroke="white" stroke-width="3" stroke-linecap="round"/>
<path d="M292.276 164.108C293.188 161.359 289.835 156.284 287.207 155.191C286.622 154.948 284.598 154.705 284.883 153.845C285.462 152.1 286.297 149.703 288.044 148.785C299.141 142.958 302.726 161.2 293.853 163.636" stroke="white" stroke-width="3" stroke-linecap="round"/>
<path d="M294.854 150.332C291.477 149.213 290.814 156.582 290.818 158.653" stroke="white" stroke-width="3" stroke-linecap="round"/>
<path d="M291.639 165.175C290.099 164.478 288.8 163.388 287.09 164.519C285.209 165.765 283.401 171.534 286.365 172.517" stroke="white" stroke-width="3" stroke-linecap="round"/>
<path d="M282.85 161.267C275.821 164.796 272.694 176.535 279.007 181.859C287.435 188.966 303.823 192.313 313.441 185.721C317.986 182.605 326.573 182.336 324.062 189.912C323.332 192.112 323.669 187.335 323.701 186.739C323.786 185.162 322.957 183.12 321.853 182.007C318.8 178.93 313.805 178.243 310.543 174.991" stroke="white" stroke-width="3" stroke-linecap="round"/>
<path d="M319.424 182.906C317.361 179.244 310.75 181.402 307.812 182.182C303.572 183.307 297.208 182.866 293.031 181.543C286.577 179.499 278.694 174.803 278.681 166.987" stroke="white" stroke-width="3" stroke-linecap="round"/>
<path d="M277.273 166.947C274.575 167.401 270.637 173.684 269.807 176.19C268.061 181.456 271.144 188.768 275.856 191.696C289.27 200.033 312.125 198.358 322.498 186.056" stroke="white" stroke-width="3" stroke-linecap="round"/>
<path d="M281.169 176.192C280.179 177.7 278.808 179.458 278.235 181.185" stroke="white" stroke-width="3" stroke-linecap="round"/>
<path d="M289.322 181.592L288.219 184.92" stroke="white" stroke-width="3" stroke-linecap="round"/>
<path d="M294.655 183.929C294.801 184.778 293.855 186.963 294.448 187.553" stroke="white" stroke-width="3" stroke-linecap="round"/>
<path d="M301.946 184.214C302.096 185.667 301.738 187.244 301.74 188.691" stroke="white" stroke-width="3" stroke-linecap="round"/>
<path d="M274.566 178.974C273.794 181.179 272.043 182.794 271.037 184.906" stroke="white" stroke-width="3" stroke-linecap="round"/>
<path d="M278.282 183.615C278.878 184.473 276.43 189.202 276.076 190.27" stroke="white" stroke-width="3" stroke-linecap="round"/>
<path d="M287.286 188.161C286.992 189.952 286.037 192.086 286.528 193.876" stroke="white" stroke-width="3" stroke-linecap="round"/>
<path d="M293.856 190.624C293.944 192.29 293.623 194.088 294.163 195.697" stroke="white" stroke-width="3" stroke-linecap="round"/>
<path d="M303.407 190.948C303.938 192.133 303.848 193.677 303.925 194.955" stroke="white" stroke-width="3" stroke-linecap="round"/>
<path d="M262.979 185.219C264.684 194.732 279.501 201.421 287.822 202.827" stroke="white" stroke-width="3" stroke-linecap="round"/>
<path d="M319.618 197.743C323.624 199.071 329.413 193.904 330.563 190.434" stroke="white" stroke-width="3" stroke-linecap="round"/>
<path d="M295.821 142.273C299.081 143.354 304.658 146.893 303.254 151.129" stroke="white" stroke-width="3" stroke-linecap="round"/>
<path d="M312.294 152.136C315.083 152.286 317.741 150.949 320.654 151.672C322.92 152.234 324.741 153.3 326.793 154.243" stroke="white" stroke-width="3" stroke-linecap="round"/>
<path d="M302.383 140.471C302.038 142.01 306.966 145.399 308.091 145.772C309.826 146.347 312.395 144.841 314.181 144.634C316.792 144.331 319.316 145.051 321.876 145.512" stroke="white" stroke-width="3" stroke-linecap="round"/>
<path d="M298.683 170.918C300.677 171.786 300.365 175.834 298.608 176.716" stroke="white" stroke-width="3" stroke-linecap="round"/>
<path d="M290.288 173.533C291.476 173.88 292.706 173.625 293.956 174.039" stroke="white" stroke-width="3" stroke-linecap="round"/>
<path d="M337.677 163.744C338.832 163.453 341.416 171.377 341.456 172.406" stroke="white" stroke-width="3" stroke-linecap="round"/>
<path d="M325.929 160.313C314.005 163.524 324.288 173.949 330.018 168.2" stroke="white" stroke-width="3" stroke-linecap="round"/>
<path d="M330.229 171.708C327.831 170.913 320.526 173.916 324.459 176.154" stroke="white" stroke-width="3" stroke-linecap="round"/>
<path d="M297.121 155.951C294.973 155.239 293.03 156.775 292.378 158.742" stroke="white" stroke-width="3" stroke-linecap="round"/>
</svg>
