<svg width="374" height="84" viewBox="0 0 374 84" fill="none" xmlns="http://www.w3.org/2000/svg">
<path d="M1.74188 46.1525C1.74188 18.3266 53.7321 -6.53399 61.224 30.9256C66.2643 56.1267 94.848 62.1959 98.611 32.0919C99.4885 25.0719 108.938 3.48295 118.633 5.59057C139.177 10.0567 134.957 34.203 139.367 49.3923C152.147 93.4125 185.772 16.976 196.517 11.6813C226.039 -2.86574 215.386 57.6568 237.921 69.414C270.484 86.4035 269.942 -2.11404 307.9 2.02683C342.349 5.78486 319.741 35.7522 309.65 50.8178C297.671 68.7017 307.78 87.4978 328.311 71.8115C352.11 53.6279 343.253 30.0266 357.987 9.08952C372.476 -11.5001 371.591 78.1172 371.464 82.3083" stroke="white" stroke-width="3" stroke-linecap="round"/>
</svg>
