<svg width="36" height="30" viewBox="0 0 36 30" fill="none" xmlns="http://www.w3.org/2000/svg">
<path d="M35.9904 2.56838C35.492 7.83857 33.3324 20.6471 32.236 26.5511C31.7708 29.0527 30.8405 29.8866 29.9767 29.9867C28.0496 30.1535 26.5877 28.7192 24.7271 27.485C21.8033 25.5504 20.142 24.3496 17.3179 22.4817C14.0286 20.3136 16.155 19.1128 18.0488 17.1781C18.5472 16.6778 27.0528 8.90595 27.219 8.20548C27.242 8.09939 27.239 7.98924 27.21 7.88461C27.1811 7.77998 27.1271 7.68403 27.0528 7.60508C26.8535 7.4383 26.5877 7.50501 26.3551 7.53837C26.0561 7.60508 21.4046 10.7072 12.3341 16.8446C11.0051 17.7452 9.80901 18.2122 8.7458 18.1788C7.5497 18.1455 5.29039 17.5117 3.59591 16.9447C1.50272 16.2775 -0.125307 15.9106 0.00759379 14.7432C0.074044 14.1428 0.904673 13.5424 2.46625 12.9086C12.168 8.67246 18.6137 5.87059 21.8365 4.53637C31.0731 0.667114 32.9669 0 34.2295 0C34.4953 0 35.1266 0.066711 35.5253 0.400267C35.8575 0.667112 35.9572 1.03403 35.9904 1.30087C35.9572 1.501 36.0236 2.10141 35.9904 2.56838Z" fill="#fff"/>
</svg>
