<svg width="1619" height="221" viewBox="0 0 1619 221" fill="none" xmlns="http://www.w3.org/2000/svg">
<path d="M429.368 55.6H408.208V37.2H470.768V55.6H449.608V166H429.368V55.6ZM480.567 37.2H510.559C520.986 37.2 528.591 39.6533 533.375 44.56C538.159 49.344 540.551 56.7653 540.551 66.824V74.736C540.551 88.1067 536.135 96.5707 527.303 100.128V100.496C532.21 101.968 535.645 104.973 537.607 109.512C539.693 114.051 540.735 120.123 540.735 127.728V150.36C540.735 154.04 540.858 157.045 541.103 159.376C541.349 161.584 541.962 163.792 542.943 166H522.335C521.599 163.915 521.109 161.952 520.863 160.112C520.618 158.272 520.495 154.96 520.495 150.176V126.624C520.495 120.736 519.514 116.627 517.551 114.296C515.711 111.965 512.461 110.8 507.799 110.8H500.807V166H480.567V37.2ZM508.167 92.4C512.215 92.4 515.221 91.3573 517.183 89.272C519.269 87.1867 520.311 83.6907 520.311 78.784V68.848C520.311 64.1867 519.453 60.8133 517.735 58.728C516.141 56.6427 513.565 55.6 510.007 55.6H500.807V92.4H508.167ZM584.034 167.84C574.098 167.84 566.493 165.019 561.218 159.376C555.944 153.733 553.306 145.76 553.306 135.456V67.744C553.306 57.44 555.944 49.4667 561.218 43.824C566.493 38.1813 574.098 35.36 584.034 35.36C593.97 35.36 601.576 38.1813 606.85 43.824C612.125 49.4667 614.762 57.44 614.762 67.744V135.456C614.762 145.76 612.125 153.733 606.85 159.376C601.576 165.019 593.97 167.84 584.034 167.84ZM584.034 149.44C591.026 149.44 594.522 145.208 594.522 136.744V66.456C594.522 57.992 591.026 53.76 584.034 53.76C577.042 53.76 573.546 57.992 573.546 66.456V136.744C573.546 145.208 577.042 149.44 584.034 149.44ZM628.45 37.2H648.69V147.6H681.994V166H628.45V37.2ZM691.7 37.2H711.94V147.6H745.244V166H691.7V37.2ZM756.606 90.928V37.2H776.846V90.928L774.27 131.96H759.182L756.606 90.928ZM756.974 146.496H776.478V166H756.974V146.496Z" fill="white"/>
<path d="M1261.37 55.6H1240.21V37.2H1302.77V55.6H1281.61V166H1261.37V55.6ZM1312.57 37.2H1342.56C1352.99 37.2 1360.59 39.6533 1365.38 44.56C1370.16 49.344 1372.55 56.7653 1372.55 66.824V74.736C1372.55 88.1067 1368.14 96.5707 1359.3 100.128V100.496C1364.21 101.968 1367.64 104.973 1369.61 109.512C1371.69 114.051 1372.74 120.123 1372.74 127.728V150.36C1372.74 154.04 1372.86 157.045 1373.1 159.376C1373.35 161.584 1373.96 163.792 1374.94 166H1354.34C1353.6 163.915 1353.11 161.952 1352.86 160.112C1352.62 158.272 1352.5 154.96 1352.5 150.176V126.624C1352.5 120.736 1351.51 116.627 1349.55 114.296C1347.71 111.965 1344.46 110.8 1339.8 110.8H1332.81V166H1312.57V37.2ZM1340.17 92.4C1344.22 92.4 1347.22 91.3573 1349.18 89.272C1351.27 87.1867 1352.31 83.6907 1352.31 78.784V68.848C1352.31 64.1867 1351.45 60.8133 1349.74 58.728C1348.14 56.6427 1345.56 55.6 1342.01 55.6H1332.81V92.4H1340.17ZM1416.03 167.84C1406.1 167.84 1398.49 165.019 1393.22 159.376C1387.94 153.733 1385.31 145.76 1385.31 135.456V67.744C1385.31 57.44 1387.94 49.4667 1393.22 43.824C1398.49 38.1813 1406.1 35.36 1416.03 35.36C1425.97 35.36 1433.58 38.1813 1438.85 43.824C1444.13 49.4667 1446.76 57.44 1446.76 67.744V135.456C1446.76 145.76 1444.13 153.733 1438.85 159.376C1433.58 165.019 1425.97 167.84 1416.03 167.84ZM1416.03 149.44C1423.03 149.44 1426.52 145.208 1426.52 136.744V66.456C1426.52 57.992 1423.03 53.76 1416.03 53.76C1409.04 53.76 1405.55 57.992 1405.55 66.456V136.744C1405.55 145.208 1409.04 149.44 1416.03 149.44ZM1460.45 37.2H1480.69V147.6H1513.99V166H1460.45V37.2ZM1523.7 37.2H1543.94V147.6H1577.24V166H1523.7V37.2ZM1588.61 90.928V37.2H1608.85V90.928L1606.27 131.96H1591.18L1588.61 90.928ZM1588.97 146.496H1608.48V166H1588.97V146.496Z" fill="white"/>
<path opacity="0.2" d="M23.368 55.6H2.208V37.2H64.768V55.6H43.608V166H23.368V55.6ZM74.5674 37.2H104.559C114.986 37.2 122.591 39.6533 127.375 44.56C132.159 49.344 134.551 56.7653 134.551 66.824V74.736C134.551 88.1067 130.135 96.5707 121.303 100.128V100.496C126.21 101.968 129.645 104.973 131.607 109.512C133.693 114.051 134.735 120.123 134.735 127.728V150.36C134.735 154.04 134.858 157.045 135.103 159.376C135.349 161.584 135.962 163.792 136.943 166H116.335C115.599 163.915 115.109 161.952 114.863 160.112C114.618 158.272 114.495 154.96 114.495 150.176V126.624C114.495 120.736 113.514 116.627 111.551 114.296C109.711 111.965 106.461 110.8 101.799 110.8H94.8074V166H74.5674V37.2ZM102.167 92.4C106.215 92.4 109.221 91.3573 111.183 89.272C113.269 87.1867 114.311 83.6907 114.311 78.784V68.848C114.311 64.1867 113.453 60.8133 111.735 58.728C110.141 56.6427 107.565 55.6 104.007 55.6H94.8074V92.4H102.167ZM178.034 167.84C168.098 167.84 160.493 165.019 155.218 159.376C149.944 153.733 147.306 145.76 147.306 135.456V67.744C147.306 57.44 149.944 49.4667 155.218 43.824C160.493 38.1813 168.098 35.36 178.034 35.36C187.97 35.36 195.576 38.1813 200.85 43.824C206.125 49.4667 208.762 57.44 208.762 67.744V135.456C208.762 145.76 206.125 153.733 200.85 159.376C195.576 165.019 187.97 167.84 178.034 167.84ZM178.034 149.44C185.026 149.44 188.522 145.208 188.522 136.744V66.456C188.522 57.992 185.026 53.76 178.034 53.76C171.042 53.76 167.546 57.992 167.546 66.456V136.744C167.546 145.208 171.042 149.44 178.034 149.44ZM222.45 37.2H242.69V147.6H275.994V166H222.45V37.2ZM285.7 37.2H305.94V147.6H339.244V166H285.7V37.2ZM350.606 90.928V37.2H370.846V90.928L368.27 131.96H353.182L350.606 90.928ZM350.974 146.496H370.478V166H350.974V146.496Z" fill="white"/>
<path opacity="0.2" d="M845.368 55.6H824.208V37.2H886.768V55.6H865.608V166H845.368V55.6ZM896.567 37.2H926.559C936.986 37.2 944.591 39.6533 949.375 44.56C954.159 49.344 956.551 56.7653 956.551 66.824V74.736C956.551 88.1067 952.135 96.5707 943.303 100.128V100.496C948.21 101.968 951.645 104.973 953.607 109.512C955.693 114.051 956.735 120.123 956.735 127.728V150.36C956.735 154.04 956.858 157.045 957.103 159.376C957.349 161.584 957.962 163.792 958.943 166H938.335C937.599 163.915 937.109 161.952 936.863 160.112C936.618 158.272 936.495 154.96 936.495 150.176V126.624C936.495 120.736 935.514 116.627 933.551 114.296C931.711 111.965 928.461 110.8 923.799 110.8H916.807V166H896.567V37.2ZM924.167 92.4C928.215 92.4 931.221 91.3573 933.183 89.272C935.269 87.1867 936.311 83.6907 936.311 78.784V68.848C936.311 64.1867 935.453 60.8133 933.735 58.728C932.141 56.6427 929.565 55.6 926.007 55.6H916.807V92.4H924.167ZM1000.03 167.84C990.098 167.84 982.493 165.019 977.218 159.376C971.944 153.733 969.306 145.76 969.306 135.456V67.744C969.306 57.44 971.944 49.4667 977.218 43.824C982.493 38.1813 990.098 35.36 1000.03 35.36C1009.97 35.36 1017.58 38.1813 1022.85 43.824C1028.13 49.4667 1030.76 57.44 1030.76 67.744V135.456C1030.76 145.76 1028.13 153.733 1022.85 159.376C1017.58 165.019 1009.97 167.84 1000.03 167.84ZM1000.03 149.44C1007.03 149.44 1010.52 145.208 1010.52 136.744V66.456C1010.52 57.992 1007.03 53.76 1000.03 53.76C993.042 53.76 989.546 57.992 989.546 66.456V136.744C989.546 145.208 993.042 149.44 1000.03 149.44ZM1044.45 37.2H1064.69V147.6H1097.99V166H1044.45V37.2ZM1107.7 37.2H1127.94V147.6H1161.24V166H1107.7V37.2ZM1172.61 90.928V37.2H1192.85V90.928L1190.27 131.96H1175.18L1172.61 90.928ZM1172.97 146.496H1192.48V166H1172.97V146.496Z" fill="white"/>
</svg>
